<svg viewBox="0 0 45 45" xmlns="http://www.w3.org/2000/svg"><g fill="#fff"><path d="m36.8 17.3c.3.3.8.3 1.1 0l2.1-2.1c.9-.9.9-2.3 0-3.2l-1.1-1c-.9-.9-2.3-.9-3.2 0l-2.1 2.1c-.3.3-.3.8 0 1.1l-1.2 1.2c-1.9-1.4-4-2.4-6.3-2.9 3.1-2 4-6.2 2-9.3s-6.2-4-9.3-2-4 6.2-2 9.3c.5.8 1.2 1.5 2 2-2.3.5-4.4 1.5-6.3 2.9l-1.2-1.2c.3-.3.3-.8 0-1.1l-2.1-2.1c-.9-.9-2.3-.9-3.2 0l-1 1c-.9.9-.9 2.3 0 3.2l2.1 2.1c.3.3.8.3 1.1 0l1.2 1.2c-2.2 2.9-3.4 6.4-3.4 10 0 9.1 7.4 16.5 16.5 16.5s16.5-7.4 16.5-16.5c0-3.6-1.2-7.1-3.4-10zm0-5.3c.3-.3.8-.3 1.1 0l1.1 1.1c.3.3.3.8 0 1.1l-1.6 1.6-2.1-2.1zm-15.1-.1v-1.4h1.5v1.4c-.4.1-1 .1-1.5 0zm2.3-2.9h-3v-2.3c0-.4.3-.7.7-.7h1.5c.5 0 .8.3.8.7zm-6.7-2.3c0-2.9 2.3-5.2 5.2-5.3s5.2 2.3 5.3 5.2c0 2-1.2 3.9-3 4.7v-1c.4 0 .7-.3.7-.7v-3c0-1.2-1-2.2-2.2-2.2h-1.5c-1.2 0-2.2 1-2.2 2.2v3c0 .4.3.7.7.7v1c-1.9-.7-3-2.5-3-4.6zm-11.2 7.5c-.3-.3-.3-.8 0-1.1l1-1.1c.3-.3.8-.3 1.1 0l1.6 1.6-2.1 2.1zm3.1 2.1 1.1-1.1 1.1 1.1c-.4.3-.7.7-1.1 1.1zm13.3 27.2c-8.3 0-15-6.7-15-15s6.7-15 15-15 15 6.7 15 15-6.7 15-15 15zm12.2-26.1c-.3-.4-.7-.7-1.1-1.1l1.1-1.1 1.1 1.1z"/><path d="m31.5 19.5c0-.1 0-.1 0 0-5-5-13-5-18-.1-.1 0-.1.1-.1.1-4.9 5-4.9 12.9 0 17.9 0 .1.1.1.1.1 5 4.9 12.9 4.9 17.9 0 .1 0 .1-.1.1-.1 5-4.9 5-12.9 0-17.9zm0 9.7h2.2c-.2 2.5-1.1 4.8-2.8 6.7l-1.6-1.6c-.3-.3-.8-.3-1.1 0s-.3.8 0 1.1l1.6 1.6c-1.9 1.6-4.2 2.6-6.7 2.8v-2.2c0-.4-.3-.7-.7-.7s-.7.3-.7.7v2.2c-2.5-.2-4.8-1.1-6.7-2.8l1.6-1.6c.3-.3.3-.8 0-1.1s-.8-.3-1.1 0l-1.5 1.6c-1.6-1.9-2.6-4.2-2.8-6.7h2.2c.4 0 .7-.3.7-.7s-.3-.7-.7-.7h-2.2c.2-2.5 1.1-4.8 2.8-6.7l1.6 1.6c.3.3.8.3 1.1 0s.3-.8 0-1.1l-1.6-1.6c1.9-1.6 4.2-2.6 6.7-2.8v2.2c0 .4.3.7.7.7s.7-.3.7-.7v-2.2c2.5.2 4.8 1.1 6.7 2.8l-1.6 1.6c-.3.3-.3.8 0 1.1s.8.3 1.1 0l1.6-1.6c1.6 1.9 2.6 4.2 2.8 6.7h-2.2c-.4 0-.7.3-.7.7s.2.7.6.7z"/><path d="m28.5 27.7h-3.9c-.4-1.2-1.7-1.8-2.9-1.4-.1 0-.1.1-.2.1l-2.7-2.7c-.3-.3-.8-.3-1.1 0s-.3.8 0 1.1l2.7 2.7c-.5 1.1-.1 2.5 1.1 3 1.1.5 2.5.1 3-1.1 0-.1.1-.2.1-.2h3.9c.4 0 .7-.3.7-.7s-.3-.8-.7-.8zm-6 1.5c-.4 0-.7-.3-.7-.7s.3-.7.7-.7.7.3.7.7-.3.7-.7.7z"/></g></svg>